# xmcd CD database file
#
# Track frame offsets:
#	150
#	8959
#	17182
#	28738
#	36867
#	50413
#	58503
#	65993
#	76280
#	82643
#	89563
#	96257
#	102117
#	108047
#	112628
#	117114
#	122086
#	127054
#	133134
#	139230
#	148584
#	155925
#	167729
#	177049
#	186388
#	195574
#	200312
#	205242
#	213100
#	222376
#	230107
#	237787
#	251480
#	260928
#	265423
#	269524
#	275856
#	282870
#	286337
#	297231
#	303382
#	316094
#	320933
#	330462
#
# Disc length: 4553 seconds
#
# Revision: 0
# Processed by: cddbd v1.5.1PL0 Copyright (c) Steve Scherf et al.
# Submitted via: CDex 1.51
#
DISCID=a611c72c
DTITLE=Sonoton Authentic Series - SAS 068 - Authentic Romania
DYEAR=1999
DGENRE=Contentum
TTITLE0=String Music from Central Transylvania - Romanian dance
TTITLE1=String Music from Central Transylvania - Batuta dance
TTITLE2=String Music from Central Transylvania - Lyrical song 1
TTITLE3=String Music from Central Transylvania - Lyrical song 2
TTITLE4=String Music from Central Transylvania - Aries River 1
TTITLE5=String Music from Central Transylvania - Aries River 2
TTITLE6=Music from Maramures County (Northern Transylvania) - De Baut 1
TTITLE7=Music from Maramures County (Northern Transylvania) - De Baut 2
TTITLE8=Music from Maramures County (Northern Transylvania) - Iza valley
TTITLE9=Music from Maramures County (Northern Transylvania) - Invartita 1
TTITLE10=Music from Maramures County (Northern Transylvania) - Invartita 2
TTITLE11=Music from Maramures County (Northern Transylvania) - Horea Miresei 1
TTITLE12=Music from Maramures County (Northern Transylvania) - Horea Miresei 2
TTITLE13=Music from Maramures County (Northern Transylvania) - Song of the sheep
TTITLE14=Music from Maramures County (Northern Transylvania) - Near the sheepfold
TTITLE15=Music from Bihor County (Northern Transylvania) - Polca 1
TTITLE16=Music from Bihor County (Northern Transylvania) - Polca 2
TTITLE17=Music from Bihor County (Northern Transylvania) - Pe Picior 1
TTITLE18=Music from Bihor County (Northern Transylvania) - Pe Picior 2
TTITLE19=String music from Codru Region (Northern Transylvania) - Begin the dance
TTITLE20=String music from Codru Region (Northern Transylvania) - Scuratul
TTITLE21=String music from Codru Region (Northern Transylvania) - Song from Codru
TTITLE22=Brass Band Music from Central Moldavia - Hora of Costica 1
TTITLE23=Brass Band Music from Central Moldavia - Hora of Costica 2
TTITLE24=Brass Band Music from Central Moldavia - Batuta
TTITLE25=Brass Band Music from Central Moldavia - Rusasca 1
TTITLE26=Brass Band Music from Central Moldavia - Rusasca 2
TTITLE27=Brass Band Music from Central Moldavia - Nostalgic song
TTITLE28=Music from Wallachia Province - The day before Yesterday 1
TTITLE29=Music from Wallachia Province - The day before Yesterday 2
TTITLE30=Music from Wallachia Province - The Neajlov valley 1
TTITLE31=Music from Wallachia Province - The Neajlov valley 2
TTITLE32=Music from Wallachia Province - If I could split my life into two pieces 1
TTITLE33=Music from Wallachia Province - If I could split my life into two pieces 2
TTITLE34=Music from Wallachia Province - Hora Din Casa
TTITLE35=Music from Wallachia Province - Doina
TTITLE36=Music from Wallachia Province - Trochita 1
TTITLE37=Music from Wallachia Province - Trochita 2
TTITLE38=Music from Wallachia Province - Dadica
TTITLE39=Music from Wallachia Province - Tiganeasca de pe vlasca
TTITLE40=Religious Choir - Bethlehem adorn yourself
TTITLE41=Religious Choir - You. all who have been baptized
TTITLE42=Religious Choir - Alleluia
TTITLE43=Religious Choir - The bridegroom comes at midnight
EXTD=YEAR: 1999
EXTT0=
EXTT1=
EXTT2=
EXTT3=
EXTT4=
EXTT5=
EXTT6=
EXTT7=
EXTT8=
EXTT9=
EXTT10=
EXTT11=
EXTT12=
EXTT13=
EXTT14=
EXTT15=
EXTT16=
EXTT17=
EXTT18=
EXTT19=
EXTT20=
EXTT21=
EXTT22=
EXTT23=
EXTT24=
EXTT25=
EXTT26=
EXTT27=
EXTT28=
EXTT29=
EXTT30=
EXTT31=
EXTT32=
EXTT33=
EXTT34=
EXTT35=
EXTT36=
EXTT37=
EXTT38=
EXTT39=
EXTT40=
EXTT41=
EXTT42=
EXTT43=
PLAYORDER=
